<?xml version="1.0" encoding="UTF-8"?>
<svg id="_레이어_1" data-name="레이어_1" xmlns="http://www.w3.org/2000/svg" version="1.1" viewBox="0 0 31.47 31.47">
  <!-- Generator: Adobe Illustrator 30.6.0, SVG Export Plug-In . SVG Version: 2.1.4 Build 27)  -->
  <defs>
    <style>
      .st0 {
        fill: #0078f0;
      }
    </style>
  </defs>
  <path class="st0" d="M24.56,10.27v2.97c2.82,1.61,4.62,4.89,4.14,8.42-.5,3.68-3.47,6.6-7.16,7.06-4.51.54-8.58-2.61-9.27-6.85h8.25c.75,0,1.34-.59,1.34-1.34v-9.42C21.87,5.16,17.19.15,11.24,0h-.38C4.89.04,0,4.95,0,10.92c0,4.64,2.84,8.67,6.91,10.26v-2.95c-2.82-1.61-4.62-4.89-4.14-8.42.5-3.68,3.47-6.62,7.16-7.06,4.51-.54,8.58,2.61,9.27,6.85h-8.25c-.75,0-1.34.59-1.34,1.34v9.42c0,5.95,4.68,10.96,10.63,11.11h.38c5.97-.04,10.86-4.95,10.86-10.92,0-4.64-2.84-8.67-6.91-10.28ZM12.28,12.28h6.91v6.91h-6.91v-6.91Z"/>
</svg>