<svg xmlns="http://www.w3.org/2000/svg" width="48" height="48" viewBox="0 0 48 48" fill="none">
  <rect width="48" height="48" rx="8" fill="#0078F0"/>
  <path d="M32.8259 18.5317V21.5056C35.6462 23.1174 37.4498 26.3983 36.9703 29.9289C36.4715 33.6125 33.4975 36.5292 29.8135 36.9897C25.3046 37.5268 21.2369 34.3801 20.5462 30.1399H28.7965C29.5448 30.1399 30.1397 29.5451 30.1397 28.7968V20.5463V19.3759C30.1397 13.4279 25.458 8.42009 19.5101 8.2666C19.3758 8.2666 19.2607 8.2666 19.1264 8.2666C13.1592 8.30498 8.2666 13.2169 8.2666 19.184C8.2666 23.8273 11.1062 27.8565 15.1739 29.449V26.4943C12.3534 24.8825 10.5498 21.6016 11.0295 18.0712C11.5284 14.3873 14.5023 11.4516 18.1862 11.0104C22.6951 10.4731 26.7628 13.6198 27.4534 17.8601H19.2031C18.4548 17.8601 17.86 18.4549 17.86 19.2032V21.3138V27.4537V28.6241C17.86 34.5721 22.5417 39.5799 28.4894 39.7333C28.6238 39.7333 28.7392 39.7333 28.8732 39.7333C34.8406 39.6949 39.7333 34.7829 39.7333 28.8158C39.7333 24.1726 36.8933 20.1434 32.8259 18.5317ZM20.5462 20.5463H27.4534V27.4537H20.5462V20.5463Z" fill="white"/>
</svg>
